<svg width="62" height="30" viewBox="0 0 62 30" fill="none" xmlns="http://www.w3.org/2000/svg">
<path d="M3.824 20.496C3.824 20.9653 3.65333 21.3707 3.312 21.712C2.992 22.032 2.59733 22.192 2.128 22.192C1.63733 22.192 1.22133 22.032 0.88 21.712C0.56 21.3707 0.4 20.9547 0.4 20.464C0.4 19.9947 0.56 19.6 0.88 19.28C1.22133 18.9387 1.63733 18.768 2.128 18.768C2.59733 18.768 2.992 18.9387 3.312 19.28C3.65333 19.6 3.824 20.0053 3.824 20.496ZM20.8413 15.696C20.8413 17.616 20.2013 19.216 18.9213 20.496C17.6626 21.7547 16.0626 22.384 14.1213 22.384C12.3719 22.384 10.8893 21.7333 9.67325 20.432C8.20125 18.8533 7.46525 16.6667 7.46525 13.872C7.46525 10.16 8.32925 7.056 10.0573 4.56C11.7853 2.064 13.9399 0.815998 16.5213 0.815998C17.6733 0.815998 18.6226 1.072 19.3693 1.584C20.1159 2.07467 20.4893 2.704 20.4893 3.472C20.4893 3.94133 20.3293 4.336 20.0093 4.656C19.7106 4.976 19.3479 5.136 18.9213 5.136C18.5159 5.136 18.1746 5.01867 17.8973 4.784C17.6413 4.528 17.5133 4.21867 17.5133 3.856C17.5133 3.36533 17.8759 2.87467 18.6013 2.384C18.6653 2.34133 18.6973 2.288 18.6973 2.224C18.6973 2.01067 18.4839 1.81867 18.0573 1.648C17.6306 1.456 17.1826 1.36 16.7133 1.36C15.4973 1.36 14.5159 1.76533 13.7693 2.576C12.1266 4.368 11.1346 7.10933 10.7933 10.8C11.7746 9.712 13.1186 9.168 14.8253 9.168C16.5533 9.168 17.9826 9.78667 19.1133 11.024C20.2653 12.2613 20.8413 13.8187 20.8413 15.696ZM17.9933 15.984C17.9933 14.1707 17.6306 12.72 16.9053 11.632C16.1799 10.544 15.2093 10 13.9933 10C12.8413 10 11.9453 10.4693 11.3053 11.408C10.6866 12.3253 10.3773 13.6373 10.3773 15.344C10.3773 17.3707 10.7399 18.9707 11.4653 20.144C12.2119 21.296 13.2359 21.872 14.5373 21.872C15.5826 21.872 16.4146 21.3387 17.0333 20.272C17.6733 19.2053 17.9933 17.776 17.9933 15.984ZM38.7695 15.28C38.7695 17.4987 37.7562 19.3227 35.7295 20.752C34.1935 21.84 32.5188 22.384 30.7055 22.384C28.5722 22.384 26.7375 21.68 25.2015 20.272C23.6868 18.864 22.9295 17.1787 22.9295 15.216C22.9295 13.936 23.2708 12.7307 23.9535 11.6C24.6575 10.448 25.5962 9.54133 26.7695 8.88C28.2202 8.06933 29.7348 7.664 31.3135 7.664C32.2735 7.664 33.2548 7.87733 34.2575 8.304C35.2602 8.70933 36.0815 9.232 36.7215 9.872C38.0868 11.2587 38.7695 13.0613 38.7695 15.28ZM36.0815 14.96C36.0815 12.976 35.6015 11.376 34.6415 10.16C33.7028 8.944 32.4655 8.336 30.9295 8.336C29.4575 8.336 28.2628 8.98667 27.3455 10.288C26.4282 11.568 25.9695 13.2427 25.9695 15.312C25.9695 17.4667 26.5775 19.152 27.7935 20.368C28.6682 21.2427 29.6495 21.68 30.7375 21.68C32.4655 21.68 33.8628 20.912 34.9295 19.376C35.6975 18.2667 36.0815 16.7947 36.0815 14.96ZM45.574 20.496C45.574 20.9653 45.4033 21.3707 45.062 21.712C44.742 22.032 44.3473 22.192 43.878 22.192C43.3873 22.192 42.9713 22.032 42.63 21.712C42.31 21.3707 42.15 20.9547 42.15 20.464C42.15 19.9947 42.31 19.6 42.63 19.28C42.9713 18.9387 43.3873 18.768 43.878 18.768C44.3473 18.768 44.742 18.9387 45.062 19.28C45.4033 19.6 45.574 20.0053 45.574 20.496ZM61.9833 22.064C61.9833 24.368 60.9806 26.224 58.9753 27.632C57.4393 28.72 55.7433 29.264 53.8873 29.264C52.6499 29.264 51.5833 28.9653 50.6873 28.368C49.8126 27.7707 49.3753 27.056 49.3753 26.224C49.3753 25.7333 49.5459 25.3173 49.8873 24.976C50.2286 24.656 50.6553 24.496 51.1673 24.496C51.6153 24.496 51.9779 24.624 52.2552 24.88C52.5539 25.1573 52.7033 25.5093 52.7033 25.936C52.7033 26.2773 52.6286 26.5333 52.4793 26.704C52.3513 26.8747 52.0206 27.1307 51.4873 27.472C51.3593 27.536 51.2953 27.6213 51.2953 27.728C51.2953 27.9413 51.5513 28.144 52.0633 28.336C52.5753 28.528 53.1299 28.624 53.7273 28.624C55.2846 28.624 56.5326 28.048 57.4713 26.896C58.4313 25.7653 58.9113 24.272 58.9113 22.416C58.9113 20.7733 58.4633 19.3973 57.5673 18.288C56.6713 17.1787 55.5619 16.624 54.2393 16.624C53.2793 16.624 52.1166 17.0933 50.7513 18.032L50.8153 17.104C50.8366 16.8907 50.8899 14.9067 50.9753 11.152C51.0179 9.59467 51.1353 8.67733 51.3273 8.4C51.5406 8.12267 52.2126 7.984 53.3433 7.984C53.5566 7.984 54.0686 7.99467 54.8793 8.016C55.7966 8.05867 56.3939 8.08 56.6713 8.08L58.3673 8.112C58.7939 8.112 59.0713 8.048 59.1993 7.92C59.3273 7.77067 59.4233 7.472 59.4873 7.024C59.5299 6.72533 59.6579 6.576 59.8713 6.576C60.0633 6.576 60.1593 6.71467 60.1593 6.992C60.1593 7.248 60.1486 7.46133 60.1273 7.632L60.0953 8.624C60.0739 9.43467 59.9246 10.0107 59.6473 10.352C59.3699 10.672 58.8899 10.832 58.2073 10.832C57.3326 10.832 56.3833 10.8 55.3593 10.736C54.6766 10.6933 54.1539 10.672 53.7913 10.672C53.2579 10.672 52.5859 10.6933 51.7753 10.736V11.12L51.6793 12.4C51.6579 12.6987 51.6259 14.16 51.5833 16.784C52.9059 16.08 54.2286 15.728 55.5513 15.728C57.4286 15.728 58.9646 16.3253 60.1593 17.52C61.3753 18.7147 61.9833 20.2293 61.9833 22.064Z" fill="black"/>
</svg>
