<svg width="77" height="54" viewBox="0 0 77 54" fill="none" xmlns="http://www.w3.org/2000/svg">
<rect width="77" height="54" fill="black"/>
<path d="M11.824 36.496C11.824 36.9653 11.6533 37.3707 11.312 37.712C10.992 38.032 10.5973 38.192 10.128 38.192C9.63733 38.192 9.22133 38.032 8.88 37.712C8.56 37.3707 8.4 36.9547 8.4 36.464C8.4 35.9947 8.56 35.6 8.88 35.28C9.22133 34.9387 9.63733 34.768 10.128 34.768C10.5973 34.768 10.992 34.9387 11.312 35.28C11.6533 35.6 11.824 36.0053 11.824 36.496ZM28.8413 31.696C28.8413 33.616 28.2013 35.216 26.9213 36.496C25.6626 37.7547 24.0626 38.384 22.1213 38.384C20.3719 38.384 18.8893 37.7333 17.6733 36.432C16.2013 34.8533 15.4653 32.6667 15.4653 29.872C15.4653 26.16 16.3293 23.056 18.0573 20.56C19.7853 18.064 21.9399 16.816 24.5213 16.816C25.6733 16.816 26.6226 17.072 27.3693 17.584C28.1159 18.0747 28.4893 18.704 28.4893 19.472C28.4893 19.9413 28.3293 20.336 28.0093 20.656C27.7106 20.976 27.3479 21.136 26.9213 21.136C26.5159 21.136 26.1746 21.0187 25.8973 20.784C25.6413 20.528 25.5133 20.2187 25.5133 19.856C25.5133 19.3653 25.8759 18.8747 26.6013 18.384C26.6653 18.3413 26.6973 18.288 26.6973 18.224C26.6973 18.0107 26.4839 17.8187 26.0573 17.648C25.6306 17.456 25.1826 17.36 24.7133 17.36C23.4973 17.36 22.5159 17.7653 21.7693 18.576C20.1266 20.368 19.1346 23.1093 18.7933 26.8C19.7746 25.712 21.1186 25.168 22.8253 25.168C24.5533 25.168 25.9826 25.7867 27.1133 27.024C28.2653 28.2613 28.8413 29.8187 28.8413 31.696ZM25.9933 31.984C25.9933 30.1707 25.6306 28.72 24.9053 27.632C24.1799 26.544 23.2093 26 21.9933 26C20.8413 26 19.9453 26.4693 19.3053 27.408C18.6866 28.3253 18.3773 29.6373 18.3773 31.344C18.3773 33.3707 18.7399 34.9707 19.4653 36.144C20.2119 37.296 21.2359 37.872 22.5373 37.872C23.5826 37.872 24.4146 37.3387 25.0333 36.272C25.6733 35.2053 25.9933 33.776 25.9933 31.984ZM46.7695 31.28C46.7695 33.4987 45.7562 35.3227 43.7295 36.752C42.1935 37.84 40.5188 38.384 38.7055 38.384C36.5722 38.384 34.7375 37.68 33.2015 36.272C31.6868 34.864 30.9295 33.1787 30.9295 31.216C30.9295 29.936 31.2708 28.7307 31.9535 27.6C32.6575 26.448 33.5962 25.5413 34.7695 24.88C36.2202 24.0693 37.7348 23.664 39.3135 23.664C40.2735 23.664 41.2548 23.8773 42.2575 24.304C43.2602 24.7093 44.0815 25.232 44.7215 25.872C46.0868 27.2587 46.7695 29.0613 46.7695 31.28ZM44.0815 30.96C44.0815 28.976 43.6015 27.376 42.6415 26.16C41.7028 24.944 40.4655 24.336 38.9295 24.336C37.4575 24.336 36.2628 24.9867 35.3455 26.288C34.4282 27.568 33.9695 29.2427 33.9695 31.312C33.9695 33.4667 34.5775 35.152 35.7935 36.368C36.6682 37.2427 37.6495 37.68 38.7375 37.68C40.4655 37.68 41.8628 36.912 42.9295 35.376C43.6975 34.2667 44.0815 32.7947 44.0815 30.96ZM53.574 36.496C53.574 36.9653 53.4033 37.3707 53.062 37.712C52.742 38.032 52.3473 38.192 51.878 38.192C51.3873 38.192 50.9713 38.032 50.63 37.712C50.31 37.3707 50.15 36.9547 50.15 36.464C50.15 35.9947 50.31 35.6 50.63 35.28C50.9713 34.9387 51.3873 34.768 51.878 34.768C52.3473 34.768 52.742 34.9387 53.062 35.28C53.4033 35.6 53.574 36.0053 53.574 36.496ZM69.9833 38.064C69.9833 40.368 68.9806 42.224 66.9753 43.632C65.4393 44.72 63.7433 45.264 61.8873 45.264C60.6499 45.264 59.5833 44.9653 58.6873 44.368C57.8126 43.7707 57.3753 43.056 57.3753 42.224C57.3753 41.7333 57.5459 41.3173 57.8873 40.976C58.2286 40.656 58.6553 40.496 59.1673 40.496C59.6153 40.496 59.9779 40.624 60.2552 40.88C60.5539 41.1573 60.7033 41.5093 60.7033 41.936C60.7033 42.2773 60.6286 42.5333 60.4793 42.704C60.3513 42.8747 60.0206 43.1307 59.4873 43.472C59.3593 43.536 59.2953 43.6213 59.2953 43.728C59.2953 43.9413 59.5513 44.144 60.0633 44.336C60.5753 44.528 61.1299 44.624 61.7273 44.624C63.2846 44.624 64.5326 44.048 65.4713 42.896C66.4313 41.7653 66.9113 40.272 66.9113 38.416C66.9113 36.7733 66.4633 35.3973 65.5673 34.288C64.6713 33.1787 63.5619 32.624 62.2393 32.624C61.2793 32.624 60.1166 33.0933 58.7513 34.032L58.8153 33.104C58.8366 32.8907 58.8899 30.9067 58.9753 27.152C59.0179 25.5947 59.1353 24.6773 59.3273 24.4C59.5406 24.1227 60.2126 23.984 61.3433 23.984C61.5566 23.984 62.0686 23.9947 62.8793 24.016C63.7966 24.0587 64.3939 24.08 64.6713 24.08L66.3673 24.112C66.7939 24.112 67.0713 24.048 67.1993 23.92C67.3273 23.7707 67.4233 23.472 67.4873 23.024C67.5299 22.7253 67.6579 22.576 67.8713 22.576C68.0633 22.576 68.1593 22.7147 68.1593 22.992C68.1593 23.248 68.1486 23.4613 68.1273 23.632L68.0953 24.624C68.0739 25.4347 67.9246 26.0107 67.6473 26.352C67.3699 26.672 66.8899 26.832 66.2073 26.832C65.3326 26.832 64.3833 26.8 63.3593 26.736C62.6766 26.6933 62.1539 26.672 61.7913 26.672C61.2579 26.672 60.5859 26.6933 59.7753 26.736V27.12L59.6793 28.4C59.6579 28.6987 59.6259 30.16 59.5833 32.784C60.9059 32.08 62.2286 31.728 63.5513 31.728C65.4286 31.728 66.9646 32.3253 68.1593 33.52C69.3753 34.7147 69.9833 36.2293 69.9833 38.064Z" fill="white"/>
</svg>
